<?xml version="1.0" encoding="utf-8"?>
<!-- Generator: Adobe Illustrator 19.0.0, SVG Export Plug-In . SVG Version: 6.00 Build 0)  -->
<svg version="1.1" id="Layer_1" xmlns="http://www.w3.org/2000/svg" xmlns:xlink="http://www.w3.org/1999/xlink" x="0px" y="0px"
	 viewBox="0 0 612 792" style="enable-background:new 0 0 612 792;" xml:space="preserve">
<style type="text/css">
	.st0{fill:none;stroke:#000000;stroke-width:0.25;stroke-linecap:round;stroke-miterlimit:10;}
	.st1{fill:none;stroke:#010101;stroke-linecap:round;stroke-linejoin:round;stroke-miterlimit:10;}
	.st2{fill:none;stroke:#010101;stroke-width:0.25;stroke-linecap:round;stroke-linejoin:round;stroke-miterlimit:10;}
</style>
<polygon id="XMLID_27_" class="st0" points="39.8,774 41.4,771.3 42.9,774 "/>
<polygon id="XMLID_35_" class="st0" points="36,774 37.6,771.3 39.1,774 "/>
<polygon id="XMLID_36_" class="st0" points="37.9,770.7 39.5,768 41,770.7 "/>
<polyline id="XMLID_119_" class="st0" points="28.5,774 24,774 24,768 28.5,768 "/>
<polyline id="XMLID_34_" class="st0" points="30,774 30,768 34.5,768 "/>
<line id="XMLID_122_" class="st0" x1="34.5" y1="771" x2="30" y2="771"/>
<g>
	<g id="char-L_1">
		<path class="st1" d="M30,36h-6V24"/>
	</g>
	<g id="char-i_1">
		<g>
			<path class="st1" d="M35,29v-2"/>
			<path class="st1" d="M33,30h2v4c0,1.1,0.9,2,2,2s2-0.9,2-2"/>
		</g>
	</g>
	<g id="char-n_1">
		<g>
			<path class="st1" d="M48,36v-3c0-1.7-1.3-3-3-3s-3,1.3-3,3v3v-6"/>
		</g>
	</g>
	<g id="char-e_1">
		<path class="st1" d="M56.1,35.1C55.5,35.7,54.8,36,54,36c-1.7,0-3-1.3-3-3s1.3-3,3-3s3,1.3,3,3h-6"/>
	</g>
	<g id="char-a_1">
		<g id="group-char-a_1">
			<path class="st1" d="M66,33v3"/>
			<path class="st1" d="M60,33c0-1.7,1.3-3,3-3c1.7,0,3,1.3,3,3s-1.3,3-3,3C61.3,36,60,34.7,60,33z"/>
		</g>
	</g>
	<g id="char-r_1">
		<g>
			<path class="st1" d="M75,33c0-1.7-1.3-3-3-3c-1.7,0-3,1.3-3,3v3v-6"/>
		</g>
	</g>
</g>
<g>
	<g id="char-C_1">
		<path class="st1" d="M93,27c0-1.7-1.3-3-3-3s-3,1.3-3,3v6c0,1.7,1.3,3,3,3s3-1.3,3-3"/>
	</g>
	<g id="char-o_1">
		<g>
			<path class="st1" d="M96,33c0-1.7,1.3-3,3-3s3,1.3,3,3s-1.3,3-3,3S96,34.7,96,33z"/>
		</g>
	</g>
	<g id="char-n_1_1_">
		<g>
			<path class="st1" d="M111,36v-3c0-1.7-1.3-3-3-3s-3,1.3-3,3v3v-6"/>
		</g>
	</g>
	<g id="char-g_1">
		<g id="group-char-g_1">
			<path class="st1" d="M120,33v4c0,1.7-1.3,3-3,3s-3-1.3-3-3"/>
			<path class="st1" d="M114,33c0-1.7,1.3-3,3-3s3,1.3,3,3s-1.3,3-3,3S114,34.7,114,33z"/>
		</g>
	</g>
	<g id="char-r_1_1_">
		<g>
			<path class="st1" d="M129,33c0-1.7-1.3-3-3-3s-3,1.3-3,3v3v-6"/>
		</g>
	</g>
	<g id="char-u_1">
		<g>
			<path class="st1" d="M138,30v3c0,1.7-1.3,3-3,3s-3-1.3-3-3v-3"/>
			<path class="st1" d="M138,33v3"/>
		</g>
	</g>
	<g id="char-e_1_1_">
		<path class="st1" d="M146.1,35.1c-0.6,0.6-1.4,0.9-2.1,0.9c-1.7,0-3-1.3-3-3s1.3-3,3-3s3,1.3,3,3h-6"/>
	</g>
	<g id="char-n_1_2_">
		<g>
			<path class="st1" d="M156,36v-3c0-1.7-1.3-3-3-3s-3,1.3-3,3v3v-6"/>
		</g>
	</g>
	<g id="char-t_1">
		<g>
			<path class="st1" d="M161,24v10c0,1.1,0.9,2,2,2s2-0.9,2-2"/>
			<path class="st1" d="M159,30h6"/>
		</g>
	</g>
	<g id="char-i_1_1_">
		<g>
			<path class="st1" d="M170,29v-2"/>
			<path class="st1" d="M168,30h2v4c0,1.1,0.9,2,2,2s2-0.9,2-2"/>
		</g>
	</g>
	<g id="char-a_1_1_">
		<g id="group-char-a_1_1_">
			<path class="st1" d="M183,33v3"/>
			<path class="st1" d="M177,33c0-1.7,1.3-3,3-3s3,1.3,3,3s-1.3,3-3,3S177,34.7,177,33z"/>
		</g>
	</g>
	<g id="char-l_1">
		<path class="st1" d="M187,24h1c0.6,0,1,0.4,1,1v10c0,0.6,0.4,1,1,1h1"/>
	</g>
</g>
<g>
	<g id="char-G_1">
		<path class="st1" d="M210,27c0-1.7-1.3-3-3-3s-3,1.3-3,3v6c0,1.7,1.3,3,3,3s3-1.3,3-3v-3h-4"/>
	</g>
	<g id="char-e_1_2_">
		<path class="st1" d="M218.1,35.1c-0.6,0.6-1.4,0.9-2.1,0.9c-1.7,0-3-1.3-3-3s1.3-3,3-3s3,1.3,3,3h-6"/>
	</g>
	<g id="char-n_1_3_">
		<g>
			<path class="st1" d="M228,36v-3c0-1.7-1.3-3-3-3s-3,1.3-3,3v3v-6"/>
		</g>
	</g>
	<g id="char-e_1_3_">
		<path class="st1" d="M236.1,35.1c-0.6,0.6-1.4,0.9-2.1,0.9c-1.7,0-3-1.3-3-3s1.3-3,3-3s3,1.3,3,3h-6"/>
	</g>
	<g id="char-r_1_2_">
		<g>
			<path class="st1" d="M246,33c0-1.7-1.3-3-3-3s-3,1.3-3,3v3v-6"/>
		</g>
	</g>
	<g id="char-a_1_2_">
		<g id="group-char-a_1_2_">
			<path class="st1" d="M255,33v3"/>
			<path class="st1" d="M249,33c0-1.7,1.3-3,3-3s3,1.3,3,3s-1.3,3-3,3S249,34.7,249,33z"/>
		</g>
	</g>
	<g id="char-t_1_1_">
		<g>
			<path class="st1" d="M260,24v10c0,1.1,0.9,2,2,2s2-0.9,2-2"/>
			<path class="st1" d="M258,30h6"/>
		</g>
	</g>
	<g id="char-o_1_1_">
		<g>
			<path class="st1" d="M267,33c0-1.7,1.3-3,3-3s3,1.3,3,3s-1.3,3-3,3S267,34.7,267,33z"/>
		</g>
	</g>
	<g id="char-r_1_3_">
		<g>
			<path class="st1" d="M282,33c0-1.7-1.3-3-3-3s-3,1.3-3,3v3v-6"/>
		</g>
	</g>
</g>
<g>
	<g>
		<g id="char-x_1">
			<g>
				<path class="st1" d="M54,78l12,12"/>
				<path class="st1" d="M66,78L54,90"/>
			</g>
		</g>
	</g>
	<g>
		<g id="char-5_1">
			<path class="st1" d="M78,85.1c0,2.4,2,4.4,4.4,4.4c2.4,0,4.4-2,4.4-4.4c0-2.4-2-4.4-4.4-4.4H78V72h8.8"/>
		</g>
	</g>
	<g>
		<g id="char-1_1">
			<path class="st1" d="M178.4,72.5l-4.4,2.9L178.4,72.5V90H174h8.8"/>
		</g>
	</g>
	<g>
		<g id="char-1_1_1_">
			<path class="st1" d="M274.4,72.5l-4.4,2.9L274.4,72.5V90H270h8.8"/>
		</g>
		<g id="char-6_1">
			<g id="group-char-6_1">
				<path class="st1" d="M283.1,85.6v-8.8c0-2.4,2-4.4,4.4-4.4s4.4,2,4.4,4.4"/>
				<path class="st1" d="M283.1,85.6c0-2.4,2-4.4,4.4-4.4s4.4,2,4.4,4.4s-2,4.4-4.4,4.4S283.1,88,283.1,85.6z"/>
			</g>
		</g>
	</g>
	<g>
		<polyline class="st1" points="96,84 108,84 102,78 		"/>
		<line class="st1" x1="102" y1="90" x2="108" y2="84"/>
	</g>
	<g>
		<polyline class="st1" points="192,84 204,84 198,78 		"/>
		<line class="st1" x1="198" y1="90" x2="204" y2="84"/>
	</g>
	<g>
		<polyline class="st1" points="306,84 318,84 312,78 		"/>
		<line class="st1" x1="312" y1="90" x2="318" y2="84"/>
	</g>
	<g>
		<line class="st1" x1="156" y1="78" x2="156" y2="90"/>
		<line class="st1" x1="150" y1="84" x2="162" y2="84"/>
	</g>
	<g>
		<line class="st1" x1="246" y1="90" x2="258" y2="78"/>
		<circle class="st1" cx="249" cy="81" r="3"/>
		<circle class="st1" cx="255" cy="87" r="3"/>
	</g>
	<rect x="24" y="72" class="st2" width="18" height="18"/>
	<rect x="120" y="72" class="st2" width="18" height="18"/>
	<rect x="216" y="72" class="st2" width="18" height="18"/>
	<rect x="330" y="72" class="st2" width="18" height="18"/>
	<g>
		<polyline class="st2" points="339,96 339,108 33,108 33,120 39,114 		"/>
		<line class="st2" x1="27" y1="114" x2="33" y2="120"/>
	</g>
</g>
<g>
	<g>
		<g id="char-x_1_1_">
			<g>
				<path class="st1" d="M54,138l12,12"/>
				<path class="st1" d="M66,138l-12,12"/>
			</g>
		</g>
	</g>
	<g>
		<g id="char-5_1_1_">
			<path class="st1" d="M78,145.1c0,2.4,2,4.4,4.4,4.4c2.4,0,4.4-2,4.4-4.4c0-2.4-2-4.4-4.4-4.4H78V132h8.8"/>
		</g>
	</g>
	<g>
		<g id="char-1_1_3_">
			<path class="st1" d="M178.4,132.5l-4.4,2.9L178.4,132.5V150H174h8.8"/>
		</g>
	</g>
	<g>
		<g id="char-1_1_2_">
			<path class="st1" d="M274.4,132.5l-4.4,2.9L274.4,132.5V150H270h8.8"/>
		</g>
		<g id="char-6_1_1_">
			<g id="group-char-6_1_1_">
				<path class="st1" d="M283.1,145.6v-8.8c0-2.4,2-4.4,4.4-4.4s4.4,2,4.4,4.4"/>
				<path class="st1" d="M283.1,145.6c0-2.4,2-4.4,4.4-4.4s4.4,2,4.4,4.4c0,2.4-2,4.4-4.4,4.4S283.1,148,283.1,145.6z"/>
			</g>
		</g>
	</g>
	<g>
		<polyline class="st1" points="96,144 108,144 102,138 		"/>
		<line class="st1" x1="102" y1="150" x2="108" y2="144"/>
	</g>
	<g>
		<polyline class="st1" points="192,144 204,144 198,138 		"/>
		<line class="st1" x1="198" y1="150" x2="204" y2="144"/>
	</g>
	<g>
		<polyline class="st1" points="306,144 318,144 312,138 		"/>
		<line class="st1" x1="312" y1="150" x2="318" y2="144"/>
	</g>
	<g>
		<line class="st1" x1="156" y1="138" x2="156" y2="150"/>
		<line class="st1" x1="150" y1="144" x2="162" y2="144"/>
	</g>
	<g>
		<line class="st1" x1="246" y1="150" x2="258" y2="138"/>
		<circle class="st1" cx="249" cy="141" r="3"/>
		<circle class="st1" cx="255" cy="147" r="3"/>
	</g>
	<rect x="24" y="132" class="st2" width="18" height="18"/>
	<rect x="120" y="132" class="st2" width="18" height="18"/>
	<rect x="216" y="132" class="st2" width="18" height="18"/>
	<rect x="330" y="132" class="st2" width="18" height="18"/>
	<g>
		<polyline class="st2" points="339,156 339,168 33,168 33,180 39,174 		"/>
		<line class="st2" x1="27" y1="174" x2="33" y2="180"/>
	</g>
</g>
<g>
	<g>
		<g id="char-x_1_2_">
			<g>
				<path class="st1" d="M54,198l12,12"/>
				<path class="st1" d="M66,198l-12,12"/>
			</g>
		</g>
	</g>
	<g>
		<g id="char-5_1_2_">
			<path class="st1" d="M78,205.1c0,2.4,2,4.4,4.4,4.4c2.4,0,4.4-2,4.4-4.4c0-2.4-2-4.4-4.4-4.4H78V192h8.8"/>
		</g>
	</g>
	<g>
		<g id="char-1_1_5_">
			<path class="st1" d="M178.4,192.5l-4.4,2.9L178.4,192.5V210H174h8.8"/>
		</g>
	</g>
	<g>
		<g id="char-1_1_4_">
			<path class="st1" d="M274.4,192.5l-4.4,2.9L274.4,192.5V210H270h8.8"/>
		</g>
		<g id="char-6_1_2_">
			<g id="group-char-6_1_2_">
				<path class="st1" d="M283.1,205.6v-8.8c0-2.4,2-4.4,4.4-4.4s4.4,2,4.4,4.4"/>
				<path class="st1" d="M283.1,205.6c0-2.4,2-4.4,4.4-4.4s4.4,2,4.4,4.4c0,2.4-2,4.4-4.4,4.4S283.1,208,283.1,205.6z"/>
			</g>
		</g>
	</g>
	<g>
		<polyline class="st1" points="96,204 108,204 102,198 		"/>
		<line class="st1" x1="102" y1="210" x2="108" y2="204"/>
	</g>
	<g>
		<polyline class="st1" points="192,204 204,204 198,198 		"/>
		<line class="st1" x1="198" y1="210" x2="204" y2="204"/>
	</g>
	<g>
		<polyline class="st1" points="306,204 318,204 312,198 		"/>
		<line class="st1" x1="312" y1="210" x2="318" y2="204"/>
	</g>
	<g>
		<line class="st1" x1="156" y1="198" x2="156" y2="210"/>
		<line class="st1" x1="150" y1="204" x2="162" y2="204"/>
	</g>
	<g>
		<line class="st1" x1="246" y1="210" x2="258" y2="198"/>
		<circle class="st1" cx="249" cy="201" r="3"/>
		<circle class="st1" cx="255" cy="207" r="3"/>
	</g>
	<rect x="24" y="192" class="st2" width="18" height="18"/>
	<rect x="120" y="192" class="st2" width="18" height="18"/>
	<rect x="216" y="192" class="st2" width="18" height="18"/>
	<rect x="330" y="192" class="st2" width="18" height="18"/>
	<g>
		<polyline class="st2" points="339,216 339,228 33,228 33,240 39,234 		"/>
		<line class="st2" x1="27" y1="234" x2="33" y2="240"/>
	</g>
</g>
<g>
	<g>
		<g id="char-x_1_3_">
			<g>
				<path class="st1" d="M54,258l12,12"/>
				<path class="st1" d="M66,258l-12,12"/>
			</g>
		</g>
	</g>
	<g>
		<g id="char-5_1_3_">
			<path class="st1" d="M78,265.1c0,2.4,2,4.4,4.4,4.4c2.4,0,4.4-2,4.4-4.4s-2-4.4-4.4-4.4H78V252h8.8"/>
		</g>
	</g>
	<g>
		<g id="char-1_1_7_">
			<path class="st1" d="M178.4,252.5l-4.4,2.9L178.4,252.5V270H174h8.8"/>
		</g>
	</g>
	<g>
		<g id="char-1_1_6_">
			<path class="st1" d="M274.4,252.5l-4.4,2.9L274.4,252.5V270H270h8.8"/>
		</g>
		<g id="char-6_1_3_">
			<g id="group-char-6_1_3_">
				<path class="st1" d="M283.1,265.6v-8.8c0-2.4,2-4.4,4.4-4.4s4.4,2,4.4,4.4"/>
				<path class="st1" d="M283.1,265.6c0-2.4,2-4.4,4.4-4.4s4.4,2,4.4,4.4c0,2.4-2,4.4-4.4,4.4S283.1,268,283.1,265.6z"/>
			</g>
		</g>
	</g>
	<g>
		<polyline class="st1" points="96,264 108,264 102,258 		"/>
		<line class="st1" x1="102" y1="270" x2="108" y2="264"/>
	</g>
	<g>
		<polyline class="st1" points="192,264 204,264 198,258 		"/>
		<line class="st1" x1="198" y1="270" x2="204" y2="264"/>
	</g>
	<g>
		<polyline class="st1" points="306,264 318,264 312,258 		"/>
		<line class="st1" x1="312" y1="270" x2="318" y2="264"/>
	</g>
	<g>
		<line class="st1" x1="156" y1="258" x2="156" y2="270"/>
		<line class="st1" x1="150" y1="264" x2="162" y2="264"/>
	</g>
	<g>
		<line class="st1" x1="246" y1="270" x2="258" y2="258"/>
		<circle class="st1" cx="249" cy="261" r="3"/>
		<circle class="st1" cx="255" cy="267" r="3"/>
	</g>
	<rect x="24" y="252" class="st2" width="18" height="18"/>
	<rect x="120" y="252" class="st2" width="18" height="18"/>
	<rect x="216" y="252" class="st2" width="18" height="18"/>
	<rect x="330" y="252" class="st2" width="18" height="18"/>
	<g>
		<polyline class="st2" points="339,276 339,288 33,288 33,300 39,294 		"/>
		<line class="st2" x1="27" y1="294" x2="33" y2="300"/>
	</g>
</g>
<g>
	<g>
		<g id="char-x_1_4_">
			<g>
				<path class="st1" d="M54,318l12,12"/>
				<path class="st1" d="M66,318l-12,12"/>
			</g>
		</g>
	</g>
	<g>
		<g id="char-5_1_4_">
			<path class="st1" d="M78,325.1c0,2.4,2,4.4,4.4,4.4c2.4,0,4.4-2,4.4-4.4s-2-4.4-4.4-4.4H78V312h8.8"/>
		</g>
	</g>
	<g>
		<g id="char-1_1_9_">
			<path class="st1" d="M178.4,312.5l-4.4,2.9L178.4,312.5V330H174h8.8"/>
		</g>
	</g>
	<g>
		<g id="char-1_1_8_">
			<path class="st1" d="M274.4,312.5l-4.4,2.9L274.4,312.5V330H270h8.8"/>
		</g>
		<g id="char-6_1_4_">
			<g id="group-char-6_1_4_">
				<path class="st1" d="M283.1,325.6v-8.8c0-2.4,2-4.4,4.4-4.4s4.4,2,4.4,4.4"/>
				<path class="st1" d="M283.1,325.6c0-2.4,2-4.4,4.4-4.4s4.4,2,4.4,4.4c0,2.4-2,4.4-4.4,4.4S283.1,328,283.1,325.6z"/>
			</g>
		</g>
	</g>
	<g>
		<polyline class="st1" points="96,324 108,324 102,318 		"/>
		<line class="st1" x1="102" y1="330" x2="108" y2="324"/>
	</g>
	<g>
		<polyline class="st1" points="192,324 204,324 198,318 		"/>
		<line class="st1" x1="198" y1="330" x2="204" y2="324"/>
	</g>
	<g>
		<polyline class="st1" points="306,324 318,324 312,318 		"/>
		<line class="st1" x1="312" y1="330" x2="318" y2="324"/>
	</g>
	<g>
		<line class="st1" x1="156" y1="318" x2="156" y2="330"/>
		<line class="st1" x1="150" y1="324" x2="162" y2="324"/>
	</g>
	<g>
		<line class="st1" x1="246" y1="330" x2="258" y2="318"/>
		<circle class="st1" cx="249" cy="321" r="3"/>
		<circle class="st1" cx="255" cy="327" r="3"/>
	</g>
	<rect x="24" y="312" class="st2" width="18" height="18"/>
	<rect x="120" y="312" class="st2" width="18" height="18"/>
	<rect x="216" y="312" class="st2" width="18" height="18"/>
	<rect x="330" y="312" class="st2" width="18" height="18"/>
	<g>
		<polyline class="st2" points="339,336 339,348 33,348 33,360 39,354 		"/>
		<line class="st2" x1="27" y1="354" x2="33" y2="360"/>
	</g>
</g>
<g>
	<g>
		<g id="char-x_1_5_">
			<g>
				<path class="st1" d="M54,378l12,12"/>
				<path class="st1" d="M66,378l-12,12"/>
			</g>
		</g>
	</g>
	<g>
		<g id="char-5_1_5_">
			<path class="st1" d="M78,385.1c0,2.4,2,4.4,4.4,4.4c2.4,0,4.4-2,4.4-4.4s-2-4.4-4.4-4.4H78V372h8.8"/>
		</g>
	</g>
	<g>
		<g id="char-1_1_11_">
			<path class="st1" d="M178.4,372.5l-4.4,2.9L178.4,372.5V390H174h8.8"/>
		</g>
	</g>
	<g>
		<g id="char-1_1_10_">
			<path class="st1" d="M274.4,372.5l-4.4,2.9L274.4,372.5V390H270h8.8"/>
		</g>
		<g id="char-6_1_5_">
			<g id="group-char-6_1_5_">
				<path class="st1" d="M283.1,385.6v-8.8c0-2.4,2-4.4,4.4-4.4s4.4,2,4.4,4.4"/>
				<path class="st1" d="M283.1,385.6c0-2.4,2-4.4,4.4-4.4s4.4,2,4.4,4.4c0,2.4-2,4.4-4.4,4.4S283.1,388,283.1,385.6z"/>
			</g>
		</g>
	</g>
	<g>
		<polyline class="st1" points="96,384 108,384 102,378 		"/>
		<line class="st1" x1="102" y1="390" x2="108" y2="384"/>
	</g>
	<g>
		<polyline class="st1" points="192,384 204,384 198,378 		"/>
		<line class="st1" x1="198" y1="390" x2="204" y2="384"/>
	</g>
	<g>
		<polyline class="st1" points="306,384 318,384 312,378 		"/>
		<line class="st1" x1="312" y1="390" x2="318" y2="384"/>
	</g>
	<g>
		<line class="st1" x1="156" y1="378" x2="156" y2="390"/>
		<line class="st1" x1="150" y1="384" x2="162" y2="384"/>
	</g>
	<g>
		<line class="st1" x1="246" y1="390" x2="258" y2="378"/>
		<circle class="st1" cx="249" cy="381" r="3"/>
		<circle class="st1" cx="255" cy="387" r="3"/>
	</g>
	<rect x="24" y="372" class="st2" width="18" height="18"/>
	<rect x="120" y="372" class="st2" width="18" height="18"/>
	<rect x="216" y="372" class="st2" width="18" height="18"/>
	<rect x="330" y="372" class="st2" width="18" height="18"/>
	<g>
		<polyline class="st2" points="339,396 339,408 33,408 33,420 39,414 		"/>
		<line class="st2" x1="27" y1="414" x2="33" y2="420"/>
	</g>
</g>
<g>
	<g>
		<g id="char-x_1_6_">
			<g>
				<path class="st1" d="M54,438l12,12"/>
				<path class="st1" d="M66,438l-12,12"/>
			</g>
		</g>
	</g>
	<g>
		<g id="char-5_1_6_">
			<path class="st1" d="M78,445.1c0,2.4,2,4.4,4.4,4.4c2.4,0,4.4-2,4.4-4.4s-2-4.4-4.4-4.4H78V432h8.8"/>
		</g>
	</g>
	<g>
		<g id="char-1_1_13_">
			<path class="st1" d="M178.4,432.5l-4.4,2.9L178.4,432.5V450H174h8.8"/>
		</g>
	</g>
	<g>
		<g id="char-1_1_12_">
			<path class="st1" d="M274.4,432.5l-4.4,2.9L274.4,432.5V450H270h8.8"/>
		</g>
		<g id="char-6_1_6_">
			<g id="group-char-6_1_6_">
				<path class="st1" d="M283.1,445.6v-8.8c0-2.4,2-4.4,4.4-4.4s4.4,2,4.4,4.4"/>
				<path class="st1" d="M283.1,445.6c0-2.4,2-4.4,4.4-4.4s4.4,2,4.4,4.4c0,2.4-2,4.4-4.4,4.4S283.1,448,283.1,445.6z"/>
			</g>
		</g>
	</g>
	<g>
		<polyline class="st1" points="96,444 108,444 102,438 		"/>
		<line class="st1" x1="102" y1="450" x2="108" y2="444"/>
	</g>
	<g>
		<polyline class="st1" points="192,444 204,444 198,438 		"/>
		<line class="st1" x1="198" y1="450" x2="204" y2="444"/>
	</g>
	<g>
		<polyline class="st1" points="306,444 318,444 312,438 		"/>
		<line class="st1" x1="312" y1="450" x2="318" y2="444"/>
	</g>
	<g>
		<line class="st1" x1="156" y1="438" x2="156" y2="450"/>
		<line class="st1" x1="150" y1="444" x2="162" y2="444"/>
	</g>
	<g>
		<line class="st1" x1="246" y1="450" x2="258" y2="438"/>
		<circle class="st1" cx="249" cy="441" r="3"/>
		<circle class="st1" cx="255" cy="447" r="3"/>
	</g>
	<rect x="24" y="432" class="st2" width="18" height="18"/>
	<rect x="120" y="432" class="st2" width="18" height="18"/>
	<rect x="216" y="432" class="st2" width="18" height="18"/>
	<rect x="330" y="432" class="st2" width="18" height="18"/>
	<g>
		<polyline class="st2" points="339,456 339,468 33,468 33,480 39,474 		"/>
		<line class="st2" x1="27" y1="474" x2="33" y2="480"/>
	</g>
</g>
<g>
	<g>
		<g id="char-x_1_7_">
			<g>
				<path class="st1" d="M54,498l12,12"/>
				<path class="st1" d="M66,498l-12,12"/>
			</g>
		</g>
	</g>
	<g>
		<g id="char-5_1_7_">
			<path class="st1" d="M78,505.1c0,2.4,2,4.4,4.4,4.4c2.4,0,4.4-2,4.4-4.4s-2-4.4-4.4-4.4H78V492h8.8"/>
		</g>
	</g>
	<g>
		<g id="char-1_1_15_">
			<path class="st1" d="M178.4,492.5l-4.4,2.9L178.4,492.5V510H174h8.8"/>
		</g>
	</g>
	<g>
		<g id="char-1_1_14_">
			<path class="st1" d="M274.4,492.5l-4.4,2.9L274.4,492.5V510H270h8.8"/>
		</g>
		<g id="char-6_1_7_">
			<g id="group-char-6_1_7_">
				<path class="st1" d="M283.1,505.6v-8.8c0-2.4,2-4.4,4.4-4.4s4.4,2,4.4,4.4"/>
				<path class="st1" d="M283.1,505.6c0-2.4,2-4.4,4.4-4.4s4.4,2,4.4,4.4c0,2.4-2,4.4-4.4,4.4S283.1,508,283.1,505.6z"/>
			</g>
		</g>
	</g>
	<g>
		<polyline class="st1" points="96,504 108,504 102,498 		"/>
		<line class="st1" x1="102" y1="510" x2="108" y2="504"/>
	</g>
	<g>
		<polyline class="st1" points="192,504 204,504 198,498 		"/>
		<line class="st1" x1="198" y1="510" x2="204" y2="504"/>
	</g>
	<g>
		<polyline class="st1" points="306,504 318,504 312,498 		"/>
		<line class="st1" x1="312" y1="510" x2="318" y2="504"/>
	</g>
	<g>
		<line class="st1" x1="156" y1="498" x2="156" y2="510"/>
		<line class="st1" x1="150" y1="504" x2="162" y2="504"/>
	</g>
	<g>
		<line class="st1" x1="246" y1="510" x2="258" y2="498"/>
		<circle class="st1" cx="249" cy="501" r="3"/>
		<circle class="st1" cx="255" cy="507" r="3"/>
	</g>
	<rect x="24" y="492" class="st2" width="18" height="18"/>
	<rect x="120" y="492" class="st2" width="18" height="18"/>
	<rect x="216" y="492" class="st2" width="18" height="18"/>
	<rect x="330" y="492" class="st2" width="18" height="18"/>
	<g>
		<polyline class="st2" points="339,516 339,528 33,528 33,540 39,534 		"/>
		<line class="st2" x1="27" y1="534" x2="33" y2="540"/>
	</g>
</g>
<g>
	<g>
		<g id="char-x_1_8_">
			<g>
				<path class="st1" d="M54,558l12,12"/>
				<path class="st1" d="M66,558l-12,12"/>
			</g>
		</g>
	</g>
	<g>
		<g id="char-5_1_8_">
			<path class="st1" d="M78,565.1c0,2.4,2,4.4,4.4,4.4c2.4,0,4.4-2,4.4-4.4c0-2.4-2-4.4-4.4-4.4H78V552h8.8"/>
		</g>
	</g>
	<g>
		<g id="char-1_1_17_">
			<path class="st1" d="M178.4,552.5l-4.4,2.9L178.4,552.5V570H174h8.8"/>
		</g>
	</g>
	<g>
		<g id="char-1_1_16_">
			<path class="st1" d="M274.4,552.5l-4.4,2.9L274.4,552.5V570H270h8.8"/>
		</g>
		<g id="char-6_1_8_">
			<g id="group-char-6_1_8_">
				<path class="st1" d="M283.1,565.6v-8.8c0-2.4,2-4.4,4.4-4.4s4.4,2,4.4,4.4"/>
				<path class="st1" d="M283.1,565.6c0-2.4,2-4.4,4.4-4.4s4.4,2,4.4,4.4s-2,4.4-4.4,4.4S283.1,568,283.1,565.6z"/>
			</g>
		</g>
	</g>
	<g>
		<polyline class="st1" points="96,564 108,564 102,558 		"/>
		<line class="st1" x1="102" y1="570" x2="108" y2="564"/>
	</g>
	<g>
		<polyline class="st1" points="192,564 204,564 198,558 		"/>
		<line class="st1" x1="198" y1="570" x2="204" y2="564"/>
	</g>
	<g>
		<polyline class="st1" points="306,564 318,564 312,558 		"/>
		<line class="st1" x1="312" y1="570" x2="318" y2="564"/>
	</g>
	<g>
		<line class="st1" x1="156" y1="558" x2="156" y2="570"/>
		<line class="st1" x1="150" y1="564" x2="162" y2="564"/>
	</g>
	<g>
		<line class="st1" x1="246" y1="570" x2="258" y2="558"/>
		<circle class="st1" cx="249" cy="561" r="3"/>
		<circle class="st1" cx="255" cy="567" r="3"/>
	</g>
	<rect x="24" y="552" class="st2" width="18" height="18"/>
	<rect x="120" y="552" class="st2" width="18" height="18"/>
	<rect x="216" y="552" class="st2" width="18" height="18"/>
	<rect x="330" y="552" class="st2" width="18" height="18"/>
	<g>
		<polyline class="st2" points="339,576 339,588 33,588 33,600 39,594 		"/>
		<line class="st2" x1="27" y1="594" x2="33" y2="600"/>
	</g>
</g>
<g>
	<g>
		<g id="char-x_1_9_">
			<g>
				<path class="st1" d="M54,618l12,12"/>
				<path class="st1" d="M66,618l-12,12"/>
			</g>
		</g>
	</g>
	<g>
		<g id="char-5_1_9_">
			<path class="st1" d="M78,625.1c0,2.4,2,4.4,4.4,4.4c2.4,0,4.4-2,4.4-4.4c0-2.4-2-4.4-4.4-4.4H78V612h8.8"/>
		</g>
	</g>
	<g>
		<g id="char-1_1_19_">
			<path class="st1" d="M178.4,612.5l-4.4,2.9L178.4,612.5V630H174h8.8"/>
		</g>
	</g>
	<g>
		<g id="char-1_1_18_">
			<path class="st1" d="M274.4,612.5l-4.4,2.9L274.4,612.5V630H270h8.8"/>
		</g>
		<g id="char-6_1_9_">
			<g id="group-char-6_1_9_">
				<path class="st1" d="M283.1,625.6v-8.8c0-2.4,2-4.4,4.4-4.4s4.4,2,4.4,4.4"/>
				<path class="st1" d="M283.1,625.6c0-2.4,2-4.4,4.4-4.4s4.4,2,4.4,4.4s-2,4.4-4.4,4.4S283.1,628,283.1,625.6z"/>
			</g>
		</g>
	</g>
	<g>
		<polyline class="st1" points="96,624 108,624 102,618 		"/>
		<line class="st1" x1="102" y1="630" x2="108" y2="624"/>
	</g>
	<g>
		<polyline class="st1" points="192,624 204,624 198,618 		"/>
		<line class="st1" x1="198" y1="630" x2="204" y2="624"/>
	</g>
	<g>
		<polyline class="st1" points="306,624 318,624 312,618 		"/>
		<line class="st1" x1="312" y1="630" x2="318" y2="624"/>
	</g>
	<g>
		<line class="st1" x1="156" y1="618" x2="156" y2="630"/>
		<line class="st1" x1="150" y1="624" x2="162" y2="624"/>
	</g>
	<g>
		<line class="st1" x1="246" y1="630" x2="258" y2="618"/>
		<circle class="st1" cx="249" cy="621" r="3"/>
		<circle class="st1" cx="255" cy="627" r="3"/>
	</g>
	<rect x="24" y="612" class="st2" width="18" height="18"/>
	<rect x="120" y="612" class="st2" width="18" height="18"/>
	<rect x="216" y="612" class="st2" width="18" height="18"/>
	<rect x="330" y="612" class="st2" width="18" height="18"/>
	<g>
		<polyline class="st2" points="339,636 339,648 33,648 33,660 39,654 		"/>
		<line class="st2" x1="27" y1="654" x2="33" y2="660"/>
	</g>
</g>
<g>
	<g id="char-x_1_10_">
		<g>
			<path class="st1" d="M54,678l12,12"/>
			<path class="st1" d="M66,678l-12,12"/>
		</g>
	</g>
</g>
<g>
	<g id="char-5_1_10_">
		<path class="st1" d="M78,685.1c0,2.4,2,4.4,4.4,4.4c2.4,0,4.4-2,4.4-4.4c0-2.4-2-4.4-4.4-4.4H78V672h8.8"/>
	</g>
</g>
<g>
	<g id="char-1_1_21_">
		<path class="st1" d="M178.4,672.5l-4.4,2.9L178.4,672.5V690H174h8.8"/>
	</g>
</g>
<g>
	<g id="char-1_1_20_">
		<path class="st1" d="M274.4,672.5l-4.4,2.9L274.4,672.5V690H270h8.8"/>
	</g>
	<g id="char-6_1_10_">
		<g id="group-char-6_1_10_">
			<path class="st1" d="M283.1,685.6v-8.8c0-2.4,2-4.4,4.4-4.4s4.4,2,4.4,4.4"/>
			<path class="st1" d="M283.1,685.6c0-2.4,2-4.4,4.4-4.4s4.4,2,4.4,4.4s-2,4.4-4.4,4.4S283.1,688,283.1,685.6z"/>
		</g>
	</g>
</g>
<g>
	<polyline class="st1" points="96,684 108,684 102,678 	"/>
	<line class="st1" x1="102" y1="690" x2="108" y2="684"/>
</g>
<g>
	<polyline class="st1" points="192,684 204,684 198,678 	"/>
	<line class="st1" x1="198" y1="690" x2="204" y2="684"/>
</g>
<g>
	<polyline class="st1" points="306,684 318,684 312,678 	"/>
	<line class="st1" x1="312" y1="690" x2="318" y2="684"/>
</g>
<g>
	<line class="st1" x1="156" y1="678" x2="156" y2="690"/>
	<line class="st1" x1="150" y1="684" x2="162" y2="684"/>
</g>
<g>
	<line class="st1" x1="246" y1="690" x2="258" y2="678"/>
	<circle class="st1" cx="249" cy="681" r="3"/>
	<circle class="st1" cx="255" cy="687" r="3"/>
</g>
<rect x="24" y="672" class="st2" width="18" height="18"/>
<rect x="120" y="672" class="st2" width="18" height="18"/>
<rect x="216" y="672" class="st2" width="18" height="18"/>
<rect x="330" y="672" class="st2" width="18" height="18"/>
</svg>
