<?xml version="1.0" encoding="utf-8"?>
<!-- Generator: Adobe Illustrator 19.0.0, SVG Export Plug-In . SVG Version: 6.00 Build 0)  -->
<svg version="1.1" id="Layer_1" xmlns="http://www.w3.org/2000/svg" xmlns:xlink="http://www.w3.org/1999/xlink" x="0px" y="0px"
	 viewBox="0 0 612 792" style="enable-background:new 0 0 612 792;" xml:space="preserve">
<style type="text/css">
	.st0{fill:none;stroke:#010101;stroke-linecap:round;stroke-linejoin:round;stroke-miterlimit:10;}
	.st1{fill:none;stroke:#ED1C24;stroke-width:3;stroke-linejoin:round;stroke-miterlimit:10;}
	.st2{fill:none;stroke:#ED1C24;stroke-width:3;stroke-miterlimit:10;}
	.st3{fill:none;stroke:#010101;stroke-width:0.5;stroke-linecap:round;stroke-linejoin:round;stroke-miterlimit:10;}
	.st4{fill:none;stroke:#39B54A;stroke-width:0.75;stroke-linejoin:round;stroke-miterlimit:10;}
</style>
<g id="XMLID_44_">
	<g id="char-1_1">
		<path id="XMLID_45_" class="st0" d="M111.6,18.4l-3.3,2.2L111.6,18.4v13.3h-3.3h6.6"/>
	</g>
</g>
<g id="XMLID_42_">
	<g id="char-2_1">
		<path id="XMLID_43_" class="st0" d="M187.3,31.7h-6.6l6.1-8.1c0.4-0.5,0.5-1.2,0.5-1.9c0-1.8-1.5-3.3-3.3-3.3
			c-1.8,0-3.3,1.5-3.3,3.3"/>
	</g>
</g>
<g id="XMLID_40_">
	<g id="char-3_1">
		<path id="XMLID_41_" class="st0" d="M253,28.4c0,1.8,1.5,3.3,3.3,3.3c1.8,0,3.3-1.5,3.3-3.3s-1.5-3.3-3.3-3.3
			c1.8,0,3.3-1.5,3.3-3.3s-1.5-3.3-3.3-3.3c-1.8,0-3.3,1.5-3.3,3.3"/>
	</g>
</g>
<g id="XMLID_38_">
	<g id="char-4_1">
		<path id="XMLID_39_" class="st0" d="M330.9,31.7V18.4l-5.5,6.6h6.6"/>
	</g>
</g>
<g id="XMLID_36_">
	<g id="char-5_1">
		<path id="XMLID_37_" class="st0" d="M397.7,28.4c0,1.8,1.5,3.3,3.3,3.3s3.3-1.5,3.3-3.3s-1.5-3.3-3.3-3.3h-3.3v-6.6h6.6"/>
	</g>
</g>
<g id="XMLID_33_">
	<g id="char-6_1">
		<g id="group-char-6_1">
			<path id="XMLID_35_" class="st0" d="M470.1,28.4v-6.6c0-1.8,1.5-3.3,3.3-3.3s3.3,1.5,3.3,3.3"/>
			<path id="XMLID_34_" class="st0" d="M470.1,28.4c0-1.8,1.5-3.3,3.3-3.3s3.3,1.5,3.3,3.3s-1.5,3.3-3.3,3.3
				C471.6,31.8,470.1,30.3,470.1,28.4z"/>
		</g>
	</g>
</g>
<g id="XMLID_29_">
	<g id="char-7_1">
		<g id="group-char-7_1">
			<path id="XMLID_32_" class="st0" d="M543.5,25h4.4"/>
			<path id="XMLID_31_" class="st0" d="M549,18.4l-6.6,13.3"/>
			<path id="XMLID_30_" class="st0" d="M542.4,18.4h6.6"/>
		</g>
	</g>
</g>
<g id="XMLID_26_">
	<g id="char-8_1">
		<g id="group-char-8_1">
			<path id="XMLID_28_" class="st0" d="M38,185.7c0-1.8,1.5-3.3,3.3-3.3s3.3,1.5,3.3,3.3c0,1.8-1.5,3.3-3.3,3.3S38,187.6,38,185.7z"
				/>
			<path id="XMLID_27_" class="st0" d="M38,179.1c0-1.8,1.5-3.3,3.3-3.3s3.3,1.5,3.3,3.3s-1.5,3.3-3.3,3.3S38,181,38,179.1z"/>
		</g>
	</g>
</g>
<g id="XMLID_23_">
	<g id="char-9_1">
		<g id="group-char-9_1">
			<path id="XMLID_25_" class="st0" d="M117,179.1v9.9"/>
			<path id="XMLID_24_" class="st0" d="M110.4,179.1c0-1.8,1.5-3.3,3.3-3.3s3.3,1.5,3.3,3.3s-1.5,3.3-3.3,3.3S110.4,181,110.4,179.1
				z"/>
		</g>
	</g>
</g>
<g id="XMLID_19_">
	<g id="char-1_1_1_">
		<path id="XMLID_22_" class="st0" d="M181.2,175.7l-3.3,2.2L181.2,175.7V189h-3.3h6.6"/>
	</g>
	<g id="char-0_1">
		<g id="group-char-0_1">
			<path id="XMLID_21_" class="st0" d="M188.9,176.8l4.4,11"/>
			<path id="XMLID_20_" class="st0" d="M194.4,185.6V179c0-1.8-1.5-3.3-3.3-3.3c-1.8,0-3.3,1.5-3.3,3.3v6.6c0,1.8,1.5,3.3,3.3,3.3
				C193,189,194.4,187.5,194.4,185.6z"/>
		</g>
	</g>
</g>
<g id="XMLID_16_">
	<g id="char-1_1_2_">
		<path id="XMLID_18_" class="st0" d="M253.6,175.7l-3.3,2.2L253.6,175.7V189h-3.3h6.6"/>
	</g>
	<g id="char-1_1_3_">
		<path id="XMLID_17_" class="st0" d="M263.5,175.7l-3.3,2.2L263.5,175.7V189h-3.3h6.6"/>
	</g>
</g>
<g id="XMLID_13_">
	<g id="char-1_1_4_">
		<path id="XMLID_15_" class="st0" d="M326,175.7l-3.3,2.2L326,175.7V189h-3.3h6.6"/>
	</g>
	<g id="char-2_1_1_">
		<path id="XMLID_14_" class="st0" d="M339.2,189h-6.6l6.1-8.1c0.4-0.5,0.5-1.2,0.5-1.9c0-1.8-1.5-3.3-3.3-3.3s-3.3,1.5-3.3,3.3"/>
	</g>
</g>
<g id="XMLID_10_">
	<g id="char-1_1_5_">
		<path id="XMLID_12_" class="st0" d="M398.5,175.7l-3.3,2.2L398.5,175.7V189h-3.3h6.6"/>
	</g>
	<g id="char-3_1_1_">
		<path id="XMLID_11_" class="st0" d="M405.1,185.6c0,1.8,1.5,3.3,3.3,3.3s3.3-1.5,3.3-3.3s-1.5-3.3-3.3-3.3c1.8,0,3.3-1.5,3.3-3.3
			s-1.5-3.3-3.3-3.3s-3.3,1.5-3.3,3.3"/>
	</g>
</g>
<g id="XMLID_7_">
	<g id="char-1_1_6_">
		<path id="XMLID_9_" class="st0" d="M470.9,175.7l-3.3,2.2L470.9,175.7V189h-3.3h6.6"/>
	</g>
	<g id="char-4_1_1_">
		<path id="XMLID_8_" class="st0" d="M483,189v-13.3l-5.6,6.6h6.6"/>
	</g>
</g>
<g id="XMLID_4_">
	<g id="char-1_1_7_">
		<path id="XMLID_6_" class="st0" d="M543.3,175.7l-3.3,2.2L543.3,175.7V189H540h6.6"/>
	</g>
	<g id="char-5_1_1_">
		<path id="XMLID_5_" class="st0" d="M549.9,185.6c0,1.8,1.5,3.3,3.3,3.3s3.3-1.5,3.3-3.3c0-1.8-1.5-3.3-3.3-3.3h-3.3v-6.6h6.6"/>
	</g>
</g>
<g id="char-0_1_2_">
	<g id="group-char-0_1_2_">
		<path id="XMLID_3_" class="st0" d="M37.1,19.6l4.4,11"/>
		<path id="XMLID_2_" class="st0" d="M42.6,28.4v-6.6c0-1.8-1.5-3.3-3.3-3.3c-1.8,0-3.3,1.5-3.3,3.3v6.6c0,1.8,1.5,3.3,3.3,3.3
			C41.1,31.7,42.6,30.3,42.6,28.4z"/>
	</g>
</g>
<path id="XMLID_123_" class="st1" d="M576,67.7c-9.9,0-18-8.1-18-18"/>
<path id="XMLID_134_" class="st1" d="M558,85.7c0-9.9,8.1-18,18-18"/>
<path id="XMLID_234_" class="st1" d="M270,121.7c0,9.9-8.1,18-18,18"/>
<path id="XMLID_233_" class="st1" d="M288,139.7c-9.9,0-18-8.1-18-18"/>
<g id="XMLID_232_">
	<path id="XMLID_237_" class="st1" d="M396,139.7c9.9,0,18,8.1,18,18"/>
	<path id="XMLID_236_" class="st1" d="M414,121.7c0,9.9-8.1,18-18,18"/>
</g>
<g id="XMLID_239_">
	<path id="XMLID_241_" class="st1" d="M486,157.7c0-9.9,8.1-18,18-18"/>
	<path id="XMLID_240_" class="st1" d="M468,139.7c9.9,0,18,8.1,18,18"/>
</g>
<g id="XMLID_242_">
	<path id="XMLID_244_" class="st1" d="M558,157.7c0-9.9,8.1-18,18-18"/>
	<path id="XMLID_243_" class="st1" d="M540,139.7c9.9,0,18,8.1,18,18"/>
</g>
<path id="XMLID_79_" class="st1" d="M288,67.7c-9.9,0-18-8.1-18-18"/>
<path id="XMLID_231_" class="st1" d="M126,121.7c0,9.9-8.1,18-18,18"/>
<path id="XMLID_235_" class="st1" d="M324,139.7c9.9,0,18,8.1,18,18"/>
<path id="XMLID_143_" class="st1" d="M486,85.7c0-9.9,8.1-18,18-18"/>
<line id="XMLID_47_" class="st1" x1="126" y1="49.7" x2="126" y2="67.7"/>
<line id="XMLID_142_" class="st1" x1="342" y1="67.7" x2="342" y2="85.7"/>
<line id="XMLID_67_" class="st2" x1="198" y1="67.7" x2="216" y2="67.7"/>
<line id="XMLID_101_" class="st1" x1="414" y1="49.7" x2="414" y2="85.7"/>
<g id="XMLID_49_">
	<g id="XMLID_64_">
		<g id="char-1_1_9_">
			<path id="XMLID_65_" class="st3" d="M54,40.7l-1.7,1.1L54,40.7v6.6h-1.7h3.3"/>
		</g>
	</g>
	<g id="XMLID_62_">
		<g id="char-2_1_3_">
			<path id="XMLID_63_" class="st3" d="M80.9,71h-3.3l3.3-4c0.2-0.3,0-0.6,0-0.9c0-0.9-0.8-1.7-1.6-1.7c-0.9,0-1.7,0.8-1.7,1.7"/>
		</g>
	</g>
	<rect id="XMLID_57_" x="36" y="49.7" class="st3" width="36" height="36"/>
	<g id="XMLID_48_">
		<g id="char-4_1_3_">
			<path id="XMLID_58_" class="st3" d="M53.5,94.7v-6.6l-2.8,3.3H54"/>
		</g>
	</g>
	<g id="XMLID_46_">
		<g id="char-8_1_1_">
			<g id="group-char-8_1_1_">
				<path id="XMLID_60_" class="st3" d="M27,69.4c0-0.9,0.8-1.6,1.6-1.6s1.6,0.8,1.6,1.6S29.5,71,28.6,71S27,70.3,27,69.4z"/>
				<path id="XMLID_59_" class="st3" d="M27,66.1c0-0.9,0.8-1.7,1.6-1.7s1.6,0.8,1.6,1.7c0,0.9-0.8,1.6-1.6,1.6S27,67,27,66.1z"/>
			</g>
		</g>
	</g>
</g>
<g id="XMLID_51_">
	<g id="XMLID_69_">
		<g id="char-1_1_8_">
			<path id="XMLID_70_" class="st3" d="M126,40.7l-1.7,1.1L126,40.7v6.6h-1.7h3.3"/>
		</g>
	</g>
	<g id="XMLID_66_">
		<g id="char-2_1_2_">
			<path id="XMLID_68_" class="st3" d="M152.9,71h-3.3l3.3-4c0.2-0.3,0-0.6,0-0.9c0-0.9-0.8-1.7-1.7-1.7c-0.9,0-1.6,0.8-1.6,1.7"/>
		</g>
	</g>
	<rect id="XMLID_61_" x="108" y="49.7" class="st3" width="36" height="36"/>
	<g id="XMLID_55_">
		<g id="char-4_1_2_">
			<path id="XMLID_56_" class="st3" d="M125.5,94.7v-6.6l-2.8,3.3h3.3"/>
		</g>
	</g>
	<g id="XMLID_52_">
		<g id="char-8_1_2_">
			<g id="group-char-8_1_2_">
				<path id="XMLID_54_" class="st3" d="M99,69.4c0-0.9,0.8-1.6,1.6-1.6c0.9,0,1.7,0.8,1.7,1.6s-0.8,1.6-1.7,1.6
					C99.8,71,99,70.3,99,69.4z"/>
				<path id="XMLID_53_" class="st3" d="M99,66.1c0-0.9,0.8-1.7,1.6-1.7c0.9,0,1.7,0.8,1.7,1.7c0,0.9-0.8,1.6-1.7,1.6
					C99.8,67.7,99,67,99,66.1z"/>
			</g>
		</g>
	</g>
</g>
<g id="XMLID_71_">
	<g id="XMLID_81_">
		<g id="char-1_1_10_">
			<path id="XMLID_82_" class="st3" d="M198,40.7l-1.6,1.1L198,40.7v6.6h-1.6h3.3"/>
		</g>
	</g>
	<g id="XMLID_78_">
		<g id="char-2_1_4_">
			<path id="XMLID_80_" class="st3" d="M224.9,71h-3.3l3.3-4c0.2-0.3,0-0.6,0-0.9c0-0.9-0.8-1.7-1.7-1.7c-0.9,0-1.6,0.8-1.6,1.7"/>
		</g>
	</g>
	<rect id="XMLID_77_" x="180" y="49.7" class="st3" width="36" height="36"/>
	<g id="XMLID_75_">
		<g id="char-4_1_4_">
			<path id="XMLID_76_" class="st3" d="M197.5,94.7v-6.6l-2.8,3.3h3.3"/>
		</g>
	</g>
	<g id="XMLID_72_">
		<g id="char-8_1_3_">
			<g id="group-char-8_1_3_">
				<path id="XMLID_74_" class="st3" d="M171,69.4c0-0.9,0.8-1.6,1.6-1.6s1.6,0.8,1.6,1.6s-0.8,1.6-1.6,1.6S171,70.3,171,69.4z"/>
				<path id="XMLID_73_" class="st3" d="M171,66.1c0-0.9,0.8-1.7,1.6-1.7s1.6,0.8,1.6,1.7c0,0.9-0.8,1.6-1.6,1.6S171,67,171,66.1z"
					/>
			</g>
		</g>
	</g>
</g>
<g id="XMLID_83_">
	<g id="XMLID_93_">
		<g id="char-1_1_11_">
			<path id="XMLID_94_" class="st3" d="M270,40.7l-1.6,1.1L270,40.7v6.6h-1.6h3.3"/>
		</g>
	</g>
	<g id="XMLID_91_">
		<g id="char-2_1_5_">
			<path id="XMLID_92_" class="st3" d="M296.9,71h-3.3l3.3-4c0.2-0.3,0-0.6,0-0.9c0-0.9-0.8-1.7-1.6-1.7s-1.6,0.8-1.6,1.7"/>
		</g>
	</g>
	<rect id="XMLID_89_" x="252" y="49.7" class="st3" width="36" height="36"/>
	<g id="XMLID_87_">
		<g id="char-4_1_5_">
			<path id="XMLID_88_" class="st3" d="M269.5,94.7v-6.6l-2.8,3.3h3.3"/>
		</g>
	</g>
	<g id="XMLID_84_">
		<g id="char-8_1_4_">
			<g id="group-char-8_1_4_">
				<path id="XMLID_86_" class="st3" d="M243,69.4c0-0.9,0.8-1.6,1.6-1.6s1.6,0.8,1.6,1.6s-0.8,1.6-1.6,1.6S243,70.3,243,69.4z"/>
				<path id="XMLID_85_" class="st3" d="M243,66.1c0-0.9,0.8-1.7,1.6-1.7s1.6,0.8,1.6,1.7c0,0.9-0.8,1.6-1.6,1.6S243,67,243,66.1z"
					/>
			</g>
		</g>
	</g>
</g>
<g id="XMLID_95_">
	<g id="XMLID_105_">
		<g id="char-1_1_12_">
			<path id="XMLID_106_" class="st3" d="M342,40.7l-1.6,1.1L342,40.7v6.6h-1.6h3.3"/>
		</g>
	</g>
	<g id="XMLID_103_">
		<g id="char-2_1_6_">
			<path id="XMLID_104_" class="st3" d="M368.9,71h-3.3l3.3-4c0.2-0.3,0-0.6,0-0.9c0-0.9-0.8-1.7-1.6-1.7s-1.6,0.8-1.6,1.7"/>
		</g>
	</g>
	<rect id="XMLID_102_" x="324" y="49.7" class="st3" width="36" height="36"/>
	<g id="XMLID_99_">
		<g id="char-4_1_6_">
			<path id="XMLID_100_" class="st3" d="M341.5,94.7v-6.6l-2.8,3.3h3.3"/>
		</g>
	</g>
	<g id="XMLID_96_">
		<g id="char-8_1_5_">
			<g id="group-char-8_1_5_">
				<path id="XMLID_98_" class="st3" d="M315,69.4c0-0.9,0.8-1.6,1.6-1.6s1.6,0.8,1.6,1.6s-0.8,1.6-1.6,1.6S315,70.3,315,69.4z"/>
				<path id="XMLID_97_" class="st3" d="M315,66.1c0-0.9,0.8-1.7,1.6-1.7s1.6,0.8,1.6,1.7c0,0.9-0.8,1.6-1.6,1.6S315,67,315,66.1z"
					/>
			</g>
		</g>
	</g>
</g>
<g id="XMLID_107_">
	<g id="XMLID_116_">
		<g id="char-1_1_13_">
			<path id="XMLID_117_" class="st3" d="M414,40.7l-1.6,1.1L414,40.7v6.6h-1.6h3.3"/>
		</g>
	</g>
	<g id="XMLID_114_">
		<g id="char-2_1_7_">
			<path id="XMLID_115_" class="st3" d="M440.9,71h-3.3l3.3-4c0.2-0.3,0-0.6,0-0.9c0-0.9-0.8-1.7-1.6-1.7s-1.6,0.8-1.6,1.7"/>
		</g>
	</g>
	<rect id="XMLID_113_" x="396" y="49.7" class="st3" width="36" height="36"/>
	<g id="XMLID_111_">
		<g id="char-4_1_7_">
			<path id="XMLID_112_" class="st3" d="M413.5,94.7v-6.6l-2.8,3.3h3.3"/>
		</g>
	</g>
	<g id="XMLID_108_">
		<g id="char-8_1_6_">
			<g id="group-char-8_1_6_">
				<path id="XMLID_110_" class="st3" d="M387,69.4c0-0.9,0.8-1.6,1.6-1.6s1.6,0.8,1.6,1.6s-0.8,1.6-1.6,1.6S387,70.3,387,69.4z"/>
				<path id="XMLID_109_" class="st3" d="M387,66.1c0-0.9,0.8-1.7,1.6-1.7s1.6,0.8,1.6,1.7c0,0.9-0.8,1.6-1.6,1.6S387,67,387,66.1z"
					/>
			</g>
		</g>
	</g>
</g>
<g id="XMLID_118_">
	<g id="XMLID_128_">
		<g id="char-1_1_14_">
			<path id="XMLID_129_" class="st3" d="M486,40.7l-1.6,1.1L486,40.7v6.6h-1.6h3.3"/>
		</g>
	</g>
	<g id="XMLID_126_">
		<g id="char-2_1_8_">
			<path id="XMLID_127_" class="st3" d="M512.9,71h-3.3l3.3-4c0.2-0.3,0-0.6,0-0.9c0-0.9-0.8-1.7-1.7-1.7c-0.9,0-1.6,0.8-1.6,1.7"/>
		</g>
	</g>
	<rect id="XMLID_125_" x="468" y="49.7" class="st3" width="36" height="36"/>
	<g id="XMLID_122_">
		<g id="char-4_1_8_">
			<path id="XMLID_124_" class="st3" d="M485.5,94.7v-6.6l-2.8,3.3h3.3"/>
		</g>
	</g>
	<g id="XMLID_119_">
		<g id="char-8_1_7_">
			<g id="group-char-8_1_7_">
				<path id="XMLID_121_" class="st3" d="M459,69.4c0-0.9,0.8-1.6,1.6-1.6s1.6,0.8,1.6,1.6s-0.8,1.6-1.6,1.6S459,70.3,459,69.4z"/>
				<path id="XMLID_120_" class="st3" d="M459,66.1c0-0.9,0.8-1.7,1.6-1.7s1.6,0.8,1.6,1.7c0,0.9-0.8,1.6-1.6,1.6S459,67,459,66.1z"
					/>
			</g>
		</g>
	</g>
</g>
<g id="XMLID_130_">
	<g id="XMLID_140_">
		<g id="char-1_1_15_">
			<path id="XMLID_141_" class="st3" d="M558,40.7l-1.7,1.1L558,40.7v6.6h-1.7h3.3"/>
		</g>
	</g>
	<g id="XMLID_138_">
		<g id="char-2_1_9_">
			<path id="XMLID_139_" class="st3" d="M584.9,71h-3.3l3.3-4c0.2-0.3,0-0.6,0-0.9c0-0.9-0.8-1.7-1.7-1.7c-0.9,0-1.6,0.8-1.6,1.7"/>
		</g>
	</g>
	<rect id="XMLID_137_" x="540" y="49.7" class="st3" width="36" height="36"/>
	<g id="XMLID_135_">
		<g id="char-4_1_9_">
			<path id="XMLID_136_" class="st3" d="M557.5,94.7v-6.6l-2.8,3.3h3.3"/>
		</g>
	</g>
	<g id="XMLID_131_">
		<g id="char-8_1_8_">
			<g id="group-char-8_1_8_">
				<path id="XMLID_133_" class="st3" d="M531,69.4c0-0.9,0.8-1.6,1.7-1.6c0.9,0,1.6,0.8,1.6,1.6s-0.8,1.6-1.6,1.6
					C531.8,71,531,70.3,531,69.4z"/>
				<path id="XMLID_132_" class="st3" d="M531,66.1c0-0.9,0.8-1.7,1.7-1.7c0.9,0,1.6,0.8,1.6,1.7c0,0.9-0.8,1.6-1.6,1.6
					C531.8,67.7,531,67,531,66.1z"/>
			</g>
		</g>
	</g>
</g>
<g id="XMLID_219_">
	<g id="XMLID_228_">
		<g id="char-1_1_23_">
			<path id="XMLID_229_" class="st3" d="M54,112.7l-1.7,1.1L54,112.7v6.6h-1.7h3.3"/>
		</g>
	</g>
	<g id="XMLID_226_">
		<g id="char-2_1_17_">
			<path id="XMLID_227_" class="st3" d="M80.9,143h-3.3l3.3-4c0.2-0.3,0-0.6,0-0.9c0-0.9-0.8-1.6-1.6-1.6c-0.9,0-1.7,0.8-1.7,1.6"/>
		</g>
	</g>
	<rect id="XMLID_225_" x="36" y="121.7" class="st3" width="36" height="36"/>
	<g id="XMLID_223_">
		<g id="char-4_1_17_">
			<path id="XMLID_224_" class="st3" d="M53.5,166.7v-6.6l-2.8,3.3H54"/>
		</g>
	</g>
	<g id="XMLID_220_">
		<g id="char-8_1_16_">
			<g id="group-char-8_1_16_">
				<path id="XMLID_222_" class="st3" d="M27,141.4c0-0.9,0.8-1.6,1.6-1.6s1.6,0.8,1.6,1.6s-0.8,1.6-1.6,1.6S27,142.3,27,141.4z"/>
				<path id="XMLID_221_" class="st3" d="M27,138.1c0-0.9,0.8-1.7,1.6-1.7s1.6,0.8,1.6,1.7c0,0.9-0.8,1.6-1.6,1.6S27,139,27,138.1z"
					/>
			</g>
		</g>
	</g>
</g>
<g id="XMLID_208_">
	<g id="XMLID_217_">
		<g id="char-1_1_22_">
			<path id="XMLID_218_" class="st3" d="M126,112.7l-1.7,1.1L126,112.7v6.6h-1.7h3.3"/>
		</g>
	</g>
	<g id="XMLID_215_">
		<g id="char-2_1_16_">
			<path id="XMLID_216_" class="st3" d="M152.9,143h-3.3l3.3-4c0.2-0.3,0-0.6,0-0.9c0-0.9-0.8-1.6-1.7-1.6c-0.9,0-1.6,0.8-1.6,1.6"
				/>
		</g>
	</g>
	<rect id="XMLID_214_" x="108" y="121.7" class="st3" width="36" height="36"/>
	<g id="XMLID_212_">
		<g id="char-4_1_16_">
			<path id="XMLID_213_" class="st3" d="M125.5,166.7v-6.6l-2.8,3.3h3.3"/>
		</g>
	</g>
	<g id="XMLID_209_">
		<g id="char-8_1_15_">
			<g id="group-char-8_1_15_">
				<path id="XMLID_211_" class="st3" d="M99,141.4c0-0.9,0.8-1.6,1.6-1.6c0.9,0,1.7,0.8,1.7,1.6s-0.8,1.6-1.7,1.6
					C99.8,143,99,142.3,99,141.4z"/>
				<path id="XMLID_210_" class="st3" d="M99,138.1c0-0.9,0.8-1.7,1.6-1.7c0.9,0,1.7,0.8,1.7,1.7c0,0.9-0.8,1.6-1.7,1.6
					C99.8,139.7,99,139,99,138.1z"/>
			</g>
		</g>
	</g>
</g>
<g id="XMLID_197_">
	<g id="XMLID_206_">
		<g id="char-1_1_21_">
			<path id="XMLID_207_" class="st3" d="M198,112.7l-1.7,1.1L198,112.7v6.6h-1.7h3.3"/>
		</g>
	</g>
	<g id="XMLID_204_">
		<g id="char-2_1_15_">
			<path id="XMLID_205_" class="st3" d="M224.9,143h-3.3l3.3-4c0.2-0.3,0-0.6,0-0.9c0-0.9-0.8-1.6-1.7-1.6c-0.9,0-1.6,0.8-1.6,1.6"
				/>
		</g>
	</g>
	<rect id="XMLID_203_" x="180" y="121.7" class="st3" width="36" height="36"/>
	<g id="XMLID_201_">
		<g id="char-4_1_15_">
			<path id="XMLID_202_" class="st3" d="M197.5,166.7v-6.6l-2.8,3.3h3.3"/>
		</g>
	</g>
	<g id="XMLID_198_">
		<g id="char-8_1_14_">
			<g id="group-char-8_1_14_">
				<path id="XMLID_200_" class="st3" d="M171,141.4c0-0.9,0.8-1.6,1.6-1.6s1.6,0.8,1.6,1.6s-0.8,1.6-1.6,1.6S171,142.3,171,141.4z"
					/>
				<path id="XMLID_199_" class="st3" d="M171,138.1c0-0.9,0.8-1.7,1.6-1.7s1.6,0.8,1.6,1.7c0,0.9-0.8,1.6-1.6,1.6
					S171,139,171,138.1z"/>
			</g>
		</g>
	</g>
</g>
<g id="XMLID_186_">
	<g id="XMLID_195_">
		<g id="char-1_1_20_">
			<path id="XMLID_196_" class="st3" d="M270,112.7l-1.6,1.1L270,112.7v6.6h-1.6h3.3"/>
		</g>
	</g>
	<g id="XMLID_193_">
		<g id="char-2_1_14_">
			<path id="XMLID_194_" class="st3" d="M296.9,143h-3.3l3.3-4c0.2-0.3,0-0.6,0-0.9c0-0.9-0.8-1.6-1.6-1.6s-1.6,0.8-1.6,1.6"/>
		</g>
	</g>
	<rect id="XMLID_192_" x="252" y="121.7" class="st3" width="36" height="36"/>
	<g id="XMLID_190_">
		<g id="char-4_1_14_">
			<path id="XMLID_191_" class="st3" d="M269.5,166.7v-6.6l-2.8,3.3h3.3"/>
		</g>
	</g>
	<g id="XMLID_187_">
		<g id="char-8_1_13_">
			<g id="group-char-8_1_13_">
				<path id="XMLID_189_" class="st3" d="M243,141.4c0-0.9,0.8-1.6,1.6-1.6s1.6,0.8,1.6,1.6s-0.8,1.6-1.6,1.6S243,142.3,243,141.4z"
					/>
				<path id="XMLID_188_" class="st3" d="M243,138.1c0-0.9,0.8-1.7,1.6-1.7s1.6,0.8,1.6,1.7c0,0.9-0.8,1.6-1.6,1.6
					S243,139,243,138.1z"/>
			</g>
		</g>
	</g>
</g>
<g id="XMLID_175_">
	<g id="XMLID_184_">
		<g id="char-1_1_19_">
			<path id="XMLID_185_" class="st3" d="M342,112.7l-1.6,1.1L342,112.7v6.6h-1.6h3.3"/>
		</g>
	</g>
	<g id="XMLID_182_">
		<g id="char-2_1_13_">
			<path id="XMLID_183_" class="st3" d="M368.9,143h-3.3l3.3-4c0.2-0.3,0-0.6,0-0.9c0-0.9-0.8-1.6-1.6-1.6s-1.6,0.8-1.6,1.6"/>
		</g>
	</g>
	<rect id="XMLID_181_" x="324" y="121.7" class="st3" width="36" height="36"/>
	<g id="XMLID_179_">
		<g id="char-4_1_13_">
			<path id="XMLID_180_" class="st3" d="M341.5,166.7v-6.6l-2.8,3.3h3.3"/>
		</g>
	</g>
	<g id="XMLID_176_">
		<g id="char-8_1_12_">
			<g id="group-char-8_1_12_">
				<path id="XMLID_178_" class="st3" d="M315,141.4c0-0.9,0.8-1.6,1.6-1.6s1.6,0.8,1.6,1.6s-0.8,1.6-1.6,1.6S315,142.3,315,141.4z"
					/>
				<path id="XMLID_177_" class="st3" d="M315,138.1c0-0.9,0.8-1.7,1.6-1.7s1.6,0.8,1.6,1.7c0,0.9-0.8,1.6-1.6,1.6
					S315,139,315,138.1z"/>
			</g>
		</g>
	</g>
</g>
<g id="XMLID_164_">
	<g id="XMLID_173_">
		<g id="char-1_1_18_">
			<path id="XMLID_174_" class="st3" d="M414,112.7l-1.6,1.1L414,112.7v6.6h-1.6h3.3"/>
		</g>
	</g>
	<g id="XMLID_171_">
		<g id="char-2_1_12_">
			<path id="XMLID_172_" class="st3" d="M440.9,143h-3.3l3.3-4c0.2-0.3,0-0.6,0-0.9c0-0.9-0.8-1.6-1.6-1.6s-1.6,0.8-1.6,1.6"/>
		</g>
	</g>
	<rect id="XMLID_170_" x="396" y="121.7" class="st3" width="36" height="36"/>
	<g id="XMLID_168_">
		<g id="char-4_1_12_">
			<path id="XMLID_169_" class="st3" d="M413.5,166.7v-6.6l-2.8,3.3h3.3"/>
		</g>
	</g>
	<g id="XMLID_165_">
		<g id="char-8_1_11_">
			<g id="group-char-8_1_11_">
				<path id="XMLID_167_" class="st3" d="M387,141.4c0-0.9,0.8-1.6,1.6-1.6s1.6,0.8,1.6,1.6s-0.8,1.6-1.6,1.6S387,142.3,387,141.4z"
					/>
				<path id="XMLID_166_" class="st3" d="M387,138.1c0-0.9,0.8-1.7,1.6-1.7s1.6,0.8,1.6,1.7c0,0.9-0.8,1.6-1.6,1.6
					S387,139,387,138.1z"/>
			</g>
		</g>
	</g>
</g>
<g id="XMLID_153_">
	<g id="XMLID_162_">
		<g id="char-1_1_17_">
			<path id="XMLID_163_" class="st3" d="M486,112.7l-1.6,1.1L486,112.7v6.6h-1.6h3.3"/>
		</g>
	</g>
	<g id="XMLID_160_">
		<g id="char-2_1_11_">
			<path id="XMLID_161_" class="st3" d="M512.9,143h-3.3l3.3-4c0.2-0.3,0-0.6,0-0.9c0-0.9-0.8-1.6-1.7-1.6c-0.9,0-1.6,0.8-1.6,1.6"
				/>
		</g>
	</g>
	<rect id="XMLID_159_" x="468" y="121.7" class="st3" width="36" height="36"/>
	<g id="XMLID_157_">
		<g id="char-4_1_11_">
			<path id="XMLID_158_" class="st3" d="M485.5,166.7v-6.6l-2.8,3.3h3.3"/>
		</g>
	</g>
	<g id="XMLID_154_">
		<g id="char-8_1_10_">
			<g id="group-char-8_1_10_">
				<path id="XMLID_156_" class="st3" d="M459,141.4c0-0.9,0.8-1.6,1.6-1.6s1.6,0.8,1.6,1.6s-0.8,1.6-1.6,1.6S459,142.3,459,141.4z"
					/>
				<path id="XMLID_155_" class="st3" d="M459,138.1c0-0.9,0.8-1.7,1.6-1.7s1.6,0.8,1.6,1.7c0,0.9-0.8,1.6-1.6,1.6
					S459,139,459,138.1z"/>
			</g>
		</g>
	</g>
</g>
<g id="XMLID_50_">
	<g id="XMLID_151_">
		<g id="char-1_1_16_">
			<path id="XMLID_152_" class="st3" d="M558,112.7l-1.7,1.1L558,112.7v6.6h-1.7h3.3"/>
		</g>
	</g>
	<g id="XMLID_149_">
		<g id="char-2_1_10_">
			<path id="XMLID_150_" class="st3" d="M584.9,143h-3.3l3.3-4c0.2-0.3,0-0.6,0-0.9c0-0.9-0.8-1.6-1.7-1.6c-0.9,0-1.6,0.8-1.6,1.6"
				/>
		</g>
	</g>
	<rect id="XMLID_148_" x="540" y="121.7" class="st3" width="36" height="36"/>
	<g id="XMLID_146_">
		<g id="char-4_1_10_">
			<path id="XMLID_147_" class="st3" d="M557.5,166.7v-6.6l-2.8,3.3h3.3"/>
		</g>
	</g>
	<g id="XMLID_90_">
		<g id="char-8_1_9_">
			<g id="group-char-8_1_9_">
				<path id="XMLID_145_" class="st3" d="M531,141.4c0-0.9,0.8-1.6,1.7-1.6c0.9,0,1.6,0.8,1.6,1.6s-0.8,1.6-1.6,1.6
					C531.8,143,531,142.3,531,141.4z"/>
				<path id="XMLID_144_" class="st3" d="M531,138.1c0-0.9,0.8-1.7,1.7-1.7c0.9,0,1.6,0.8,1.6,1.7c0,0.9-0.8,1.6-1.6,1.6
					C531.8,139.7,531,139,531,138.1z"/>
			</g>
		</g>
	</g>
</g>
<line id="XMLID_1_" class="st1" x1="54" y1="139.7" x2="36" y2="139.7"/>
<line id="XMLID_230_" class="st1" x1="180" y1="139.7" x2="216" y2="139.7"/>
<g id="XMLID_238_">
	<path id="XMLID_246_" class="st1" d="M558,121.7c0,9.9-8.1,18-18,18"/>
	<path id="XMLID_245_" class="st1" d="M576,139.7c-9.9,0-18-8.1-18-18"/>
</g>
<circle id="XMLID_247_" class="st4" cx="126" cy="44.3" r="4.5"/>
<circle id="XMLID_249_" class="st4" cx="223.2" cy="68.3" r="4.5"/>
<circle id="XMLID_250_" class="st4" cx="269.9" cy="44.3" r="4.5"/>
<circle id="XMLID_251_" class="st4" cx="295" cy="67.8" r="4.5"/>
<circle id="XMLID_252_" class="st4" cx="341.1" cy="91.5" r="4.5"/>
<circle id="XMLID_253_" class="st4" cx="414" cy="44" r="4.5"/>
<circle id="XMLID_254_" class="st4" cx="412.9" cy="91.8" r="4.5"/>
<circle id="XMLID_255_" class="st4" cx="511.2" cy="67.5" r="4.5"/>
<circle id="XMLID_257_" class="st4" cx="583.8" cy="67.5" r="4.5"/>
<circle id="XMLID_258_" class="st4" cx="558.1" cy="44" r="4.5"/>
<circle id="XMLID_259_" class="st4" cx="557.3" cy="91.1" r="4.5"/>
<circle id="XMLID_260_" class="st4" cx="28.7" cy="139.7" r="4.5"/>
<circle id="XMLID_261_" class="st4" cx="100.7" cy="139.7" r="4.5"/>
<circle id="XMLID_262_" class="st4" cx="126" cy="116" r="4.5"/>
<circle id="XMLID_263_" class="st4" cx="223.2" cy="140" r="4.5"/>
<circle id="XMLID_265_" class="st4" cx="244.7" cy="139.7" r="4.5"/>
<circle id="XMLID_266_" class="st4" cx="269.9" cy="116.2" r="4.5"/>
<circle id="XMLID_267_" class="st4" cx="295.3" cy="140" r="4.5"/>
<circle id="XMLID_268_" class="st4" cx="316.6" cy="139.7" r="4.5"/>
<circle id="XMLID_269_" class="st4" cx="341.1" cy="163.2" r="4.5"/>
<circle id="XMLID_270_" class="st4" cx="412.9" cy="163.4" r="4.5"/>
<circle id="XMLID_271_" class="st4" cx="388.6" cy="139.7" r="4.5"/>
<circle id="XMLID_272_" class="st4" cx="414.3" cy="116" r="4.5"/>
<circle id="XMLID_273_" class="st4" cx="460.6" cy="139.7" r="4.5"/>
<circle id="XMLID_274_" class="st4" cx="484.4" cy="163.4" r="4.5"/>
<circle id="XMLID_275_" class="st4" cx="533" cy="139.4" r="4.5"/>
<circle id="XMLID_277_" class="st4" cx="557" cy="163.2" r="4.5"/>
<circle id="XMLID_278_" class="st4" cx="583" cy="140" r="4.5"/>
<circle id="XMLID_279_" class="st4" cx="557.5" cy="116" r="4.5"/>
<circle id="XMLID_276_" class="st4" cx="510.9" cy="140" r="4.5"/>
<circle id="XMLID_264_" class="st4" cx="172.7" cy="139.7" r="4.5"/>
<circle id="XMLID_256_" class="st4" cx="484.9" cy="91.5" r="4.5"/>
</svg>
